<?xml version="1.0" encoding="utf-8"?>
<!-- Generator: Adobe Illustrator 25.4.1, SVG Export Plug-In . SVG Version: 6.00 Build 0)  -->
<svg version="1.1" xmlns="http://www.w3.org/2000/svg" xmlns:xlink="http://www.w3.org/1999/xlink" x="0px" y="0px"
	 viewBox="0 0 200 200" style="enable-background:new 0 0 200 200;" xml:space="preserve">
<style type="text/css">
	.st0{fill:#00AB0F;}
	.st1{fill:#FFFFFF;}
</style>
<g id="Layer_3">
	<rect x="-3.46" y="-3.46" class="st0" width="206.92" height="206.92"/>
</g>
<g id="Layer_1">
	<path d="M596.99,410.21v0.92h-0.04C596.99,410.83,596.99,410.5,596.99,410.21z"/>
	<path d="M166.01,116.74h0.02v-0.25C166.04,116.56,166.04,116.66,166.01,116.74z"/>
	<path d="M159.47,114.2h0.02v-0.26C159.49,114.03,159.49,114.12,159.47,114.2z"/>
	<g>
		<g>
			<path class="st1" d="M161.66,128.19h-7.01c-1.66,0-3-1.34-3-3s1.34-3,3-3h7.01c2.6,0,4.71-2.11,4.71-4.71V69.84
				c0-2.6-2.11-4.71-4.71-4.71h-28.48c-1.66,0-3-1.34-3-3s1.34-3,3-3h28.48c5.9,0,10.71,4.8,10.71,10.71v47.64
				C172.36,123.39,167.56,128.19,161.66,128.19z"/>
		</g>
		<g>
			<path class="st1" d="M87.28,128.19H38.34c-5.9,0-10.71-4.8-10.71-10.71V69.84c0-5.9,4.8-10.71,10.71-10.71h11.11
				c1.66,0,3,1.34,3,3s-1.34,3-3,3H38.34c-2.6,0-4.71,2.11-4.71,4.71v47.64c0,2.6,2.11,4.71,4.71,4.71h48.93c1.66,0,3,1.34,3,3
				S88.93,128.19,87.28,128.19z"/>
		</g>
		<g id="Coins_1_">
			<g>
				<path class="st1" d="M128.2,170.19c-16.46,0-29.35-7.11-29.35-16.18v-17.57h6v17.57c0,4.8,9.99,10.18,23.35,10.18
					c13.37,0,23.36-5.37,23.36-10.18v-17.57h6v17.57C157.55,163.08,144.66,170.19,128.2,170.19z"/>
			</g>
			<g>
				<path class="st1" d="M128.2,152.62c-16.46,0-29.36-7.11-29.36-16.18v-17.57h6v17.57c0,4.8,9.99,10.18,23.36,10.18
					c13.37,0,23.36-5.37,23.36-10.18v-17.57h6v17.57C157.56,145.51,144.66,152.62,128.2,152.62z"/>
			</g>
			<g>
				<path class="st1" d="M128.2,135.04C128.2,135.04,128.2,135.04,128.2,135.04c-16.74,0-29.36-6.96-29.36-16.18
					c0-9.07,12.89-16.18,29.35-16.18c16.46,0,29.36,7.11,29.36,16.18C157.56,128.09,144.94,135.04,128.2,135.04L128.2,135.04z
					 M128.2,108.69c-13.37,0-23.35,5.38-23.35,10.18c0,4.81,9.59,10.18,23.35,10.18c13.77,0,23.36-5.36,23.36-10.18
					C151.56,114.05,141.96,108.69,128.2,108.69z"/>
			</g>
		</g>
		<g>
			<path class="st1" d="M124.36,80.75c-5.41,11.86-17.37,20.11-31.26,20.11c-18.96,0-34.34-15.37-34.34-34.34
				c0-15.32,10.03-28.29,23.88-32.72c-0.57,0.44-1.13,0.9-1.67,1.39C67.97,46.75,66.8,66.64,78.35,79.64s31.45,14.16,44.44,2.61
				C123.34,81.77,123.86,81.27,124.36,80.75z"/>
		</g>
		<g>
			<polygon class="st1" points="122.73,58.46 112.59,56.23 107.34,65.19 106.32,54.86 96.18,52.64 105.69,48.47 104.67,38.14 
				111.57,45.9 121.08,41.74 115.83,50.69 			"/>
		</g>
	</g>
	<g>
	</g>
	<g>
	</g>
	<g>
	</g>
	<g>
	</g>
	<g>
	</g>
	<g>
	</g>
</g>
</svg>
