<svg xmlns="http://www.w3.org/2000/svg" viewBox="0 0 593.7 571.7">
    <path d="M597,410.2v.9h-.1A2.8,2.8,0,0,0,597,410.2Z" transform="translate(-63.2 -73.2)"/>
    <path d="M567.7,411.1h.1v-.9A2.8,2.8,0,0,1,567.7,411.1Z" transform="translate(-63.2 -73.2)"/>
    <path d="M307.8,460.4H107.3a31.5,31.5,0,0,1-31.6-31.6V233.5a31.5,31.5,0,0,1,31.6-31.6h45.5" transform="translate(-63.2 -73.2)" style="fill:none;stroke:#000;stroke-linecap:round;stroke-miterlimit:10;stroke-width:25px"/>
    <path d="M496,201.9H612.7a31.5,31.5,0,0,1,31.6,31.6V428.8a31.5,31.5,0,0,1-31.6,31.6H584" transform="translate(-63.2 -73.2)" style="fill:none;stroke:#000;stroke-linecap:round;stroke-miterlimit:10;stroke-width:25px"/>
    <path d="M597,434.5c0-38.7-52.2-67.9-121.4-67.9s-121.4,29.2-121.4,67.9V576.9c0,38.8,52.2,68,121.4,68S597,615.7,597,576.9V435.5h-.1A3.4,3.4,0,0,0,597,434.5ZM567.8,576.9c0,18.3-39.5,38.8-92.2,38.8-57.1,0-92.1-22.6-92.1-38.8v-26c21.8,14.2,54.4,22.8,92.1,22.8s70.2-8.6,92.2-22.8Zm0-71.2c0,18.4-39.5,38.8-92.2,38.8s-92.1-20.4-92.1-38.8V479.8c21.8,14.1,54.4,22.8,92.1,22.8s70.2-8.7,92.2-22.8Zm0-70.2h-.1c-.7,10.6-14.4,21.7-36.1,29.2-15.2,5.2-34.5,8.6-56,8.6-52.7,0-92.1-20.4-92.1-38.8,0-16.1,35-38.7,92.1-38.7,52.7,0,92.2,20.4,92.2,38.7Z" transform="translate(-63.2 -73.2)"/>
    <path d="M459.9,265.7A140.8,140.8,0,1,1,288.8,73.2c-2.3,1.8-4.6,3.7-6.8,5.7A129,129,0,0,0,453.4,271.8C455.7,269.8,457.8,267.8,459.9,265.7Z" transform="translate(-63.2 -73.2)"/>
    <polygon points="390 101 348.4 91.9 326.9 128.6 322.8 86.3 281.2 77.2 320.2 60.1 316 17.7 344.3 49.6 383.3 32.5 361.7 69.2 390 101"/>
</svg>