<?xml version="1.0" encoding="utf-8"?>
<!-- Generator: Adobe Illustrator 25.2.3, SVG Export Plug-In . SVG Version: 6.00 Build 0)  -->
<svg version="1.1" id="Layer_1" xmlns="http://www.w3.org/2000/svg" xmlns:xlink="http://www.w3.org/1999/xlink" x="0px" y="0px"
	 viewBox="0 0 24 24" style="enable-background:new 0 0 24 24;" xml:space="preserve">
<path d="M10.4,15.1H4.1c-0.8,0-1.4-0.6-1.5-1.4V7.6c0-0.8,0.7-1.5,1.5-1.5h1.4C5.8,6.1,6,6.3,6,6.6S5.8,7.1,5.5,7.1H4.1
	c-0.3,0-0.5,0.2-0.5,0.5v6.1c0,0.2,0.3,0.4,0.5,0.4h6.3c0.3,0,0.5,0.2,0.5,0.5S10.7,15.1,10.4,15.1z"/>
<path d="M21.4,7.6v6.1c-0.1,0.8-0.7,1.4-1.5,1.4h-2.4c0.8-0.2,1.3-0.6,1.3-1h1.1c0.2,0,0.5-0.2,0.5-0.4V7.6c0-0.3-0.2-0.5-0.5-0.5
	h-3.4c-0.3,0-0.5-0.2-0.5-0.5s0.2-0.5,0.5-0.5h3.4C20.8,6.1,21.4,6.7,21.4,7.6z"/>
<path d="M15.9,11.9c-2.3,0-4,1-4,2.2v4.7c0,1.3,1.7,2.3,4,2.3s4-1,4-2.3v-4.7C19.8,12.9,18.1,11.9,15.9,11.9z M18.8,18.8
	c0,0.5-1.2,1.3-3,1.3s-3-0.8-3-1.3V18c0.9,0.5,2,0.7,3,0.7c1,0,2.1-0.2,3-0.7V18.8z M18.8,16.5c0,0.5-1.2,1.2-3,1.2s-3-0.7-3-1.2
	v-0.8c0.9,0.5,2,0.7,3,0.7c1,0,2.1-0.2,3-0.7V16.5z M15.8,15.4c-1.9,0-3-0.7-3-1.3s1.1-1.2,3-1.2s3,0.7,3,1.2s-0.5,0.8-1.3,1
	C17,15.3,16.4,15.4,15.8,15.4z"/>
<path d="M15.6,8.4c-0.5,2.1-2.3,3.6-4.5,3.6c-2.6-0.2-4.6-2.4-4.4-5c0.1-1.8,1.2-3.3,2.8-4C8.6,3.9,8.1,5,8.1,6.3c0,2.2,1.8,4,4,4
	c0,0,0.1,0,0.1,0C13.6,10.2,14.9,9.6,15.6,8.4z"/>
<polygon points="13.6,6.4 12.5,6.3 12.1,7.3 11.8,6.3 10.8,6.1 11.8,5.6 11.5,4.5 12.3,5.3 13.3,4.7 12.8,5.7 "/>
</svg>
